<svg xmlns="http://www.w3.org/2000/svg" width="728" height="91" fill="none" viewBox="0 0 728 91"><path fill="#282828" d="M84.06 31.508 70.75 32.532q0-4.437-1.706-7.394-1.593-2.957-4.664-4.663-2.957-1.82-7.166-2.617-4.207-.796-9.213-.796-2.616 0-5.232.341-2.503.228-4.55 1.138-1.934.796-3.185 2.275t-1.251 3.867q0 2.957 3.412 4.436 3.525 1.479 8.759 2.616a364 364 0 0 0 11.715 2.276q6.37 1.024 12.171 3.07 3.526 1.252 6.256 3.185a16.25 16.25 0 0 1 4.55 4.55q1.934 2.73 2.844 6.484t.91 8.872q0 6.597-2.957 12.171-2.844 5.574-8.304 9.669-5.346 3.98-12.967 6.256-7.62 2.275-17.176 2.275-5.8 0-9.668-.91-3.754-.91-6.37-2.048a93 93 0 0 1-4.436-2.047q-1.82-.91-3.754-.91-1.706 0-3.071.91t-2.616 3.185H0l5.005-29.006 13.308-.682q0 8.872 6.142 12.74 6.257 3.867 18.655 3.867 3.412 0 6.37-.455 3.071-.455 5.346-1.479 2.388-1.137 3.753-2.957 1.365-1.935 1.365-4.891 0-2.844-2.957-4.323-2.958-1.479-7.621-2.389-4.55-.91-10.237-1.706a86.5 86.5 0 0 1-11.034-2.502q-5.004-1.479-8.53-3.412-3.414-1.934-5.574-4.55a17.2 17.2 0 0 1-3.185-5.915q-.91-3.412-.91-7.735 0-5.688 1.933-11.26 2.047-5.575 6.257-9.897Q22.409 7.735 29.12 5.12q6.711-2.73 16.266-2.73 6.255 0 10.237.91 4.095.795 6.825 1.934 2.73 1.024 4.436 1.933 1.706.796 3.299.796 2.274 0 3.753-.796 1.479-.91 3.413-2.957H88.95zm50.55-.682h15.015l-2.503 11.147q-3.07-.683-6.597-.91-3.526-.342-7.621-.342l-5.687 32.19-.228 1.138v1.138q0 1.592.683 2.616.683.91 2.388.91 2.048 0 3.072-1.251 1.023-1.252 1.592-3.868l.796-4.322h8.076l-.227 2.161q-.456 4.095-2.048 7.507-1.478 3.3-4.322 5.688-2.73 2.275-6.939 3.64-4.208 1.25-10.009 1.25-3.64 0-7.166-.682-3.526-.57-6.256-2.16a12.74 12.74 0 0 1-4.437-4.323q-1.706-2.73-1.706-6.939 0-1.82.683-5.232l5.232-29.46h-9.782l1.479-8.418a49 49 0 0 0 6.483-.91q3.412-.682 6.256-2.388 2.958-1.82 5.119-4.778 2.274-3.07 3.185-7.962l.455-2.502 18.199-.797zm52.59 41.858q0 4.209 8.986 4.209l-2.047 11.83h-45.954l2.048-11.83q9.668 0 10.578-5.119l4.209-24.796q0-4.437-8.759-4.437l2.048-11.715h36.171zm10.693-59.49q0 2.73-1.024 5.12a13.3 13.3 0 0 1-2.844 4.208 13.3 13.3 0 0 1-4.208 2.844q-2.39 1.023-5.119 1.023-2.73 0-5.119-1.023a13.3 13.3 0 0 1-4.208-2.844 13.3 13.3 0 0 1-2.844-4.209q-1.023-2.388-1.024-5.118 0-2.73 1.024-5.119a13.3 13.3 0 0 1 2.844-4.208 13.3 13.3 0 0 1 4.208-2.844Q181.969 0 184.698 0q2.73 0 5.119 1.024a13.3 13.3 0 0 1 4.208 2.844 13.3 13.3 0 0 1 2.844 4.208q1.023 2.39 1.024 5.119m44.181 59.49q0 4.209 8.986 4.209l-2.047 11.83h-45.954l2.048-11.83q9.667 0 10.578-5.119l9.441-54.598q0-4.322-8.758-4.322l2.047-11.716h36.171zm54.874 0q0 4.209 8.986 4.209l-2.047 11.83h-45.954l2.047-11.83q9.669 0 10.579-5.119L280 17.176q0-4.322-8.759-4.322l2.048-11.716h36.171zM435.4 42.542q-6.483 0-8.531 3.867l-21.953 42.314h-24.91l-7.28-28.437-17.859 28.437h-24.91l-5.915-42.2q-.569-3.982-6.825-3.982l2.048-11.715h38.787l-2.047 11.715h-4.095q-1.706 0-2.73 1.024-1.024.91-1.024 2.389l3.982 29.005 17.858-27.526q.568-.91.682-1.593.114-.796.114-1.365 0-1.934-3.185-1.934h-3.526l2.047-11.715h36.854l-2.047 11.715h-3.867q-1.935 0-2.617.91t-.682 2.275l6.938 29.233 14.901-27.526q.683-1.365.683-2.503 0-1.25-1.024-1.82-1.024-.569-2.616-.569h-3.981l2.047-11.715h26.731zm62.607 31.621q-.114.569-.227 1.024v.796q0 2.73 2.729 2.73 1.593 0 2.617-1.251 1.023-1.365 1.365-3.299l.91-4.891h7.962l-.455 2.161q-1.024 5.801-3.299 9.327-2.275 3.527-5.232 5.46a18 18 0 0 1-6.37 2.616q-3.412.683-6.825.683-4.322 0-7.393-.796-2.958-.797-4.891-2.275a9.8 9.8 0 0 1-2.958-3.64q-1.023-2.161-1.365-4.778-1.365 2.389-3.526 4.664-2.047 2.276-5.005 4.095-2.957 1.706-6.825 2.73-3.867 1.137-8.758 1.137-9.555 0-13.763-3.753t-4.209-11.034q0-9.668 10.465-14.673 2.843-1.365 6.483-2.161a102 102 0 0 1 8.076-1.593 390 390 0 0 0 9.214-1.82q5.005-1.023 10.351-2.73l.341-1.592a28 28 0 0 0 .455-4.777q0-4.209-2.161-6.484-2.048-2.275-7.508-2.275-3.639 0-6.369.569-2.617.455-5.574 2.047 2.616.228 4.436 1.365 1.934 1.138 1.934 4.436 0 3.64-3.185 6.256-3.185 2.503-8.417 2.503-5.119 0-7.394-1.706-2.275-1.82-2.275-6.029 0-3.753 2.161-7.052 2.275-3.413 6.484-5.915 4.209-2.617 10.351-4.095 6.256-1.593 14.104-1.592 4.437 0 9.328.91 4.89.795 8.986 3.07 4.095 2.162 6.711 5.916 2.73 3.753 2.73 9.554 0 2.162-.342 4.323zm-21.726-16.266q-4.094 2.503-7.621 3.981-3.526 1.479-6.142 2.844t-4.095 3.185-1.479 5.119q0 1.591 1.024 2.73 1.138 1.137 3.868 1.137 3.525 0 6.824-2.161 3.413-2.161 5.801-6.142zm84.324-27.071h15.015l-2.503 11.147q-3.07-.683-6.597-.91-3.526-.342-7.621-.342l-5.687 32.19-.228 1.138v1.138q0 1.592.683 2.616.683.91 2.388.91 2.048 0 3.071-1.251 1.024-1.252 1.593-3.868l.796-4.322h8.076l-.227 2.161q-.456 4.095-2.048 7.507-1.478 3.3-4.322 5.688-2.73 2.275-6.939 3.64-4.208 1.25-10.009 1.25-3.64 0-7.166-.682-3.527-.57-6.257-2.16-2.73-1.593-4.436-4.323t-1.706-6.939q0-1.82.683-5.232l5.232-29.46h-9.782l1.478-8.418a49 49 0 0 0 6.484-.91q3.412-.682 6.256-2.388 2.958-1.82 5.119-4.778 2.274-3.07 3.185-7.962l.455-2.502 18.199-.797zm44.514 30.143v2.502q0 4.322.569 7.166.569 2.73 1.706 4.436a6.9 6.9 0 0 0 3.185 2.275q2.047.683 4.777.683 1.707 0 3.64-.683a16 16 0 0 0 3.754-1.934 16.8 16.8 0 0 0 3.526-3.07q1.593-1.82 2.502-4.21l12.626.797q-1.478 4.095-4.208 8.076-2.73 3.867-6.711 6.938-3.981 2.957-9.214 4.778-5.232 1.933-11.716 1.933t-12.057-1.25-9.782-4.21q-4.095-3.07-6.484-8.19-2.274-5.118-2.275-12.853 0-8.076 2.844-14.673 2.844-6.598 7.962-11.26 5.233-4.665 12.512-7.167 7.281-2.502 16.152-2.502 7.394 0 12.513 1.592 5.232 1.48 8.531 4.436 3.298 2.957 4.777 7.28 1.479 4.208 1.479 9.555a49 49 0 0 1-.228 4.663 68 68 0 0 1-.682 4.892zm20.247-9.669q.341-1.706.341-3.867 0-1.706-.341-3.413a8.5 8.5 0 0 0-1.251-3.071q-.796-1.365-2.275-2.161t-3.754-.796q-4.322 0-7.166 3.867-2.843 3.867-4.322 9.441zm68.157-10.123q3.754-6.256 8.759-9.442 5.119-3.184 11.943-3.184 2.503 0 4.778.796a11.3 11.3 0 0 1 4.208 2.502q1.934 1.707 3.072 4.323 1.137 2.616 1.137 6.142 0 2.958-.91 5.801a15.4 15.4 0 0 1-2.502 5.119q-1.593 2.16-4.095 3.526-2.503 1.251-5.915 1.251-4.891 0-7.621-2.502-2.616-2.503-2.616-6.143 0-3.298 2.161-5.8 2.161-2.504 6.483-2.958-1.592-2.275-4.777-2.275-2.73 0-5.346 1.706-2.503 1.706-4.777 4.322-2.161 2.504-3.868 5.688-1.706 3.07-2.73 5.915l-2.843 16.493q0 2.275 2.957 3.412 2.957 1.024 7.28 1.024l-2.048 11.83h-47.204l2.047-11.83q9.669 0 10.578-5.119l4.209-24.91q0-4.322-8.645-4.322l2.048-11.716h36.057z"/></svg>